<?xml version="1.0" encoding="UTF-8" standalone="no"?><!DOCTYPE svg PUBLIC "-//W3C//DTD SVG 1.1//EN" "http://www.w3.org/Graphics/SVG/1.1/DTD/svg11.dtd"><svg width="100%" height="100%" viewBox="0 0 433 446" version="1.1" xmlns="http://www.w3.org/2000/svg" xmlns:xlink="http://www.w3.org/1999/xlink" xml:space="preserve" xmlns:serif="http://www.serif.com/" style="fill-rule:evenodd;clip-rule:evenodd;"><g id="Layer_x0020_3"><path d="M257.631,262.03c1.096,-9.129 0.768,-10.467 7.567,-8.989l1.726,0.152c5.229,0.238 12.068,-0.841 16.086,-2.708c8.65,-4.013 13.779,-10.714 5.25,-8.953c-19.455,4.013 -20.792,-2.574 -20.792,-2.574c20.543,-30.481 29.131,-69.174 21.718,-78.645c-20.218,-25.834 -55.215,-13.618 -55.8,-13.301l-0.187,0.035c-3.844,-0.798 -8.146,-1.274 -12.979,-1.353c-8.804,-0.144 -15.484,2.308 -20.551,6.152c0,0 -62.433,-25.721 -59.528,32.347c0.617,12.353 17.706,93.472 38.088,68.97c7.449,-8.959 14.648,-16.534 14.648,-16.534c3.575,2.375 7.855,3.586 12.344,3.151l0.347,-0.296c-0.109,1.112 -0.061,2.2 0.139,3.488c-5.25,5.867 -3.708,6.897 -14.205,9.058c-10.62,2.189 -4.381,6.086 -0.308,7.104c4.938,1.235 16.363,2.985 24.085,-7.822l-0.307,1.233c2.059,1.647 1.92,11.843 2.212,19.128c0.292,7.285 0.78,14.083 2.265,18.091c1.485,4.007 3.237,14.331 17.033,11.374c11.53,-2.471 20.346,-6.027 21.149,-39.108" style="fill-rule:nonzero;stroke:#000;stroke-width:14.46px;"/><path d="M288.262,241.531c-19.457,4.013 -20.794,-2.574 -20.794,-2.574c20.543,-30.483 29.131,-69.177 21.719,-78.647c-20.218,-25.832 -55.216,-13.615 -55.8,-13.298l-0.188,0.034c-3.844,-0.798 -8.146,-1.273 -12.981,-1.352c-8.804,-0.145 -15.482,2.308 -20.549,6.151c0,0 -62.434,-25.721 -59.53,32.348c0.617,12.353 17.706,93.472 38.088,68.97c7.45,-8.959 14.648,-16.534 14.648,-16.534c3.575,2.375 7.855,3.586 12.342,3.151l0.348,-0.296c-0.108,1.112 -0.058,2.2 0.14,3.488c-5.251,5.867 -3.708,6.897 -14.204,9.058c-10.622,2.189 -4.382,6.086 -0.308,7.104c4.938,1.235 16.364,2.985 24.084,-7.822l-0.308,1.233c2.058,1.647 3.502,10.718 3.26,18.941c-0.242,8.223 -0.404,13.868 1.217,18.278c1.622,4.409 3.237,14.331 17.036,11.374c11.53,-2.471 17.505,-8.874 18.336,-19.555c0.59,-7.593 1.925,-6.471 2.009,-13.259l1.071,-3.214c1.234,-10.293 0.196,-13.614 7.299,-12.07l1.727,0.152c5.228,0.238 12.071,-0.841 16.087,-2.707c8.648,-4.014 13.777,-10.715 5.25,-8.954l0.001,0Z" style="fill:#336791;fill-rule:nonzero;"/><path d="M216.113,247.431c-0.536,19.153 0.134,38.439 2.008,43.126c1.875,4.688 5.888,13.804 19.688,10.848c11.529,-2.472 15.724,-7.255 17.544,-17.812c1.341,-7.768 3.926,-29.341 4.257,-33.761" style="fill:none;fill-rule:nonzero;stroke:#fff;stroke-width:4.82px;stroke-linecap:round;stroke-linejoin:round;"/><path d="M199.572,151.417c0,0 -62.476,-25.535 -59.571,32.533c0.617,12.354 17.707,93.475 38.089,68.973c7.448,-8.961 14.184,-15.989 14.184,-15.989" style="fill:none;fill-rule:nonzero;stroke:#fff;stroke-width:4.82px;stroke-linecap:round;stroke-linejoin:round;"/><path d="M233.319,146.756c-2.163,0.678 34.753,-13.495 55.732,13.313c7.411,9.47 -1.177,48.164 -21.72,78.647" style="fill:none;fill-rule:nonzero;stroke:#fff;stroke-width:4.82px;stroke-linecap:round;stroke-linejoin:round;"/><path d="M267.331,238.716c0,0 1.339,6.59 20.796,2.574c8.525,-1.761 3.394,4.941 -5.252,8.956c-7.096,3.293 -23.004,4.137 -23.264,-0.414c-0.669,-11.741 8.373,-8.174 7.72,-11.116c-0.589,-2.649 -4.633,-5.25 -7.308,-11.735c-2.335,-5.66 -32.025,-49.065 8.234,-42.618c1.475,-0.305 -10.5,-38.294 -48.177,-38.912c-37.668,-0.618 -36.433,46.324 -36.433,46.324" style="fill:none;fill-rule:nonzero;stroke:#fff;stroke-width:4.82px;stroke-linecap:round;stroke-linejoin:bevel;"/><path d="M205.568,242.732c-5.252,5.866 -3.707,6.896 -14.205,9.057c-10.621,2.189 -4.381,6.086 -0.308,7.104c4.939,1.236 16.364,2.985 24.084,-7.825c2.351,-3.291 -0.014,-8.543 -3.243,-9.881c-1.56,-0.647 -3.647,-1.457 -6.328,1.545Z" style="fill:none;fill-rule:nonzero;stroke:#fff;stroke-width:4.82px;stroke-linecap:round;stroke-linejoin:round;"/><path d="M205.224,242.629c-0.529,-3.449 1.133,-7.553 2.915,-12.355c2.677,-7.205 8.855,-14.41 3.913,-37.264c-3.684,-17.03 -28.39,-3.544 -28.405,-1.235c-0.015,2.308 1.117,11.705 -0.413,22.646c-1.996,14.278 9.085,26.354 21.846,25.118" style="fill:none;fill-rule:nonzero;stroke:#fff;stroke-width:4.82px;stroke-linecap:round;stroke-linejoin:round;"/><path d="M199.345,191.429c-0.111,0.788 1.444,2.893 3.472,3.174c2.025,0.283 3.758,-1.362 3.867,-2.15c0.11,-0.789 -1.443,-1.657 -3.472,-1.94c-2.026,-0.283 -3.759,0.129 -3.866,0.916l-0.001,0Z" style="fill:#fff;fill-rule:nonzero;stroke:#fff;stroke-width:1.61px;"/><path d="M261.01,189.821c0.11,0.789 -1.443,2.893 -3.472,3.174c-2.026,0.283 -3.758,-1.362 -3.87,-2.15c-0.107,-0.789 1.447,-1.657 3.474,-1.94c2.026,-0.282 3.758,0.129 3.868,0.916l0,0Z" style="fill:#fff;fill-rule:nonzero;stroke:#fff;stroke-width:0.8px;"/><path d="M268.257,184.363c0.334,6.186 -1.333,10.4 -1.543,16.986c-0.311,9.572 4.564,20.529 -2.781,31.499" style="fill:none;fill-rule:nonzero;stroke:#fff;stroke-width:4.82px;stroke-linecap:round;stroke-linejoin:round;"/></g></svg>